<svg width="40" height="40" viewBox="0 0 40 40" fill="none" xmlns="http://www.w3.org/2000/svg">
<path d="M34.2051 3.72739H28.173C27.8975 2.4765 26.7704 1.53857 25.4245 1.53857H22.4341C22.0533 0.600325 21.1557 0 20.1336 0C19.1115 0 18.2139 0.600325 17.8331 1.53857H14.8052C13.459 1.53857 12.3322 2.47682 12.0567 3.72739H6.06212C4.51011 3.72739 3.11426 5.02916 3.11426 6.58085V37.1734C3.11426 38.7254 4.51011 40 6.06212 40H34.2047C35.7568 40 36.8857 38.7251 36.8857 37.1734V6.58085C36.886 5.02916 35.7568 3.72739 34.2051 3.72739ZM20.1336 1.25153C20.8232 1.25153 21.3845 1.81249 21.3845 2.50242C21.3845 3.19235 20.8232 3.75331 20.1336 3.75331C19.4437 3.75331 18.8827 3.19235 18.8827 2.50242C18.8827 1.81249 19.4437 1.25153 20.1336 1.25153ZM6.55397 37.1862V5.91621H11.8698V6.93286C11.8698 7.10566 12.1303 7.1671 12.3031 7.1671H27.926C28.0988 7.1671 28.1301 7.10566 28.1301 6.93286V5.91621H33.446V37.1862H6.55397Z" fill="#FFC033"/>
<path d="M30.4847 14.6718H17.9508C17.6056 14.6718 17.3256 14.9514 17.3256 15.297C17.3256 15.6426 17.6056 15.9226 17.9508 15.9226H30.4847C30.83 15.9226 31.1103 15.6423 31.1103 15.297C31.1103 14.9518 30.83 14.6718 30.4847 14.6718Z" fill="#FFC033"/>
<path d="M21.677 19.675H17.9508C17.6056 19.675 17.3256 19.9551 17.3256 20.3003C17.3256 20.6459 17.6056 20.9259 17.9508 20.9259H21.677C22.0222 20.9259 22.3022 20.6459 22.3022 20.3003C22.3022 19.9551 22.0222 19.675 21.677 19.675Z" fill="#FFC033"/>
<path d="M30.4844 19.675H24.4911C24.1458 19.675 23.8658 19.9551 23.8658 20.3003C23.8658 20.6459 24.1458 20.9259 24.4911 20.9259H30.4847C30.83 20.9259 31.1103 20.6459 31.11 20.3003C31.11 19.9551 30.8297 19.675 30.4844 19.675Z" fill="#FFC033"/>
<path d="M30.4847 29.6812H26.7586C26.4133 29.6812 26.1333 29.9612 26.1333 30.3064C26.1333 30.652 26.4133 30.932 26.7586 30.932H30.4847C30.83 30.932 31.1103 30.652 31.1103 30.3064C31.1103 29.9612 30.83 29.6812 30.4847 29.6812Z" fill="#FFC033"/>
<path d="M23.9442 29.6812H17.9508C17.6056 29.6812 17.3256 29.9612 17.3256 30.3064C17.3256 30.652 17.6056 30.932 17.9508 30.932H23.9442C24.2895 30.932 24.5695 30.652 24.5695 30.3064C24.5695 29.9612 24.2895 29.6812 23.9442 29.6812Z" fill="#FFC033"/>
<path d="M30.4847 24.678H17.9508C17.6056 24.678 17.3256 24.958 17.3256 25.3033C17.3256 25.6489 17.6056 25.9289 17.9508 25.9289H30.4847C30.83 25.9289 31.1103 25.6489 31.1103 25.3033C31.1103 24.958 30.83 24.678 30.4847 24.678Z" fill="#FFC033"/>
<path d="M15.5694 12.9339C15.3252 12.6897 14.9294 12.6897 14.6852 12.9339L12.2977 15.3211L11.194 14.2174C10.9498 13.9732 10.554 13.9732 10.3098 14.2174C10.0653 14.4619 10.0653 14.8577 10.3098 15.1019L11.8558 16.6478C11.9777 16.77 12.1377 16.8312 12.2977 16.8312C12.458 16.8312 12.618 16.77 12.7399 16.6478L15.5694 13.8183C15.8139 13.5739 15.8139 13.1783 15.5694 12.9339Z" fill="#FFC033"/>
<path d="M15.5694 17.9202C15.3252 17.676 14.9294 17.676 14.6852 17.9202L12.2977 20.3074L11.194 19.2037C10.9498 18.9596 10.554 18.9596 10.3098 19.2037C10.0653 19.4482 10.0653 19.8437 10.3098 20.0882L11.8558 21.6341C11.9777 21.7564 12.1377 21.8172 12.2977 21.8172C12.458 21.8172 12.618 21.7561 12.7399 21.6341L15.5694 18.8047C15.8139 18.5602 15.8139 18.1643 15.5694 17.9202Z" fill="#FFC033"/>
<path d="M15.5694 22.9172C15.3252 22.6728 14.9294 22.6728 14.6852 22.9172L12.2977 25.3045L11.194 24.2008C10.9498 23.9563 10.554 23.9563 10.3098 24.2008C10.0653 24.4453 10.0653 24.8408 10.3098 25.0853L11.8558 26.6312C11.9777 26.7531 12.1377 26.8142 12.2977 26.8142C12.458 26.8142 12.618 26.7534 12.7399 26.6312L15.5694 23.8017C15.8139 23.5573 15.8139 23.1614 15.5694 22.9172Z" fill="#FFC033"/>
<path d="M15.5694 27.9253C15.3252 27.6811 14.9294 27.6811 14.6852 27.9253L12.2977 30.3125L11.194 29.2088C10.9498 28.9647 10.554 28.9647 10.3098 29.2088C10.0653 29.4533 10.0653 29.8492 10.3098 30.0933L11.8558 31.6393C11.9777 31.7615 12.1377 31.8226 12.2977 31.8226C12.458 31.8226 12.618 31.7615 12.7399 31.6393L15.5694 28.8098C15.8139 28.5653 15.8139 28.1698 15.5694 27.9253Z" fill="#FFC033"/>
</svg>
