<svg width="50" height="44" viewBox="0 0 50 44" fill="none" xmlns="http://www.w3.org/2000/svg">
<path d="M35.7146 10.9212H21.4288L17.8573 7.28076H7.14299C5.17869 7.28076 3.58939 8.91894 3.58939 10.9212L3.57153 32.7636C3.57153 34.7658 5.17869 36.404 7.14299 36.404H35.7146C37.6789 36.404 39.2861 34.7658 39.2861 32.7636V14.5616C39.2861 12.5593 37.6789 10.9212 35.7146 10.9212ZM35.7146 32.7636H7.14299V14.5616H35.7146V32.7636Z" fill="#FFC033"/>
<path d="M24.6649 37.9967L34.8212 27.6443C33.8168 25.0278 34.3748 21.9562 36.4954 19.7947C38.7275 17.5195 42.0757 17.0644 44.7543 18.3158L39.9552 23.2076L43.3034 26.6205L48.2142 21.7287C49.5535 24.459 48.9954 27.8719 46.7633 30.1471C44.6427 32.3086 41.6293 32.8774 39.0623 31.8535L28.906 42.2059C28.4596 42.661 27.7899 42.661 27.3435 42.2059L24.7765 39.5894C24.2185 39.1343 24.2185 38.338 24.6649 37.9967Z" fill="#FFC033"/>
</svg>
