<svg width="40" height="40" viewBox="0 0 40 40" fill="none" xmlns="http://www.w3.org/2000/svg">
<path d="M39.4337 37.6386L31.1214 23.3888C30.8372 22.9011 30.3298 22.6099 29.7642 22.6099C29.1993 22.6099 28.6926 22.9011 28.4077 23.3888L20.0955 37.6386C19.8084 38.1299 19.8063 38.7186 20.0898 39.212C20.3741 39.7053 20.8828 40 21.4519 40H38.0772C38.6463 40 39.1551 39.7053 39.4379 39.212C39.7221 38.7186 39.72 38.1306 39.4337 37.6386ZM38.2211 38.513C38.2 38.5516 38.1565 38.5965 38.0772 38.5965H21.4519C21.3719 38.5965 21.3291 38.5516 21.3074 38.513C21.2856 38.4744 21.2681 38.4148 21.3081 38.346L29.6204 24.0962C29.6604 24.0274 29.7207 24.0134 29.7642 24.0134C29.8084 24.0134 29.8681 24.0281 29.9088 24.0962L38.2211 38.346C38.2611 38.4148 38.2435 38.4744 38.2211 38.513Z" fill="#FFC033"/>
<path d="M29.8239 27.3684C29.4365 27.3684 29.1221 27.6821 29.1221 28.0702V33.6842C29.1221 34.0723 29.4365 34.386 29.8239 34.386C30.2113 34.386 30.5256 34.0723 30.5256 33.6842V28.0702C30.5256 27.6821 30.212 27.3684 29.8239 27.3684Z" fill="#FFC033"/>
<path d="M29.3256 35.993C29.1993 36.1257 29.1221 36.3081 29.1221 36.4913C29.1221 36.6737 29.1993 36.8562 29.3256 36.9895C29.459 37.1222 29.6344 37.193 29.8239 37.193C30.0134 37.193 30.1888 37.1158 30.3221 36.9895C30.4484 36.8562 30.5256 36.6737 30.5256 36.4913C30.5256 36.3081 30.4484 36.1257 30.3221 35.993C30.0625 35.7334 29.5993 35.7264 29.3256 35.993Z" fill="#FFC033"/>
<path d="M19.2975 8.42114C18.9102 8.42114 18.5958 8.73483 18.5958 9.1229C18.5958 9.51097 18.9102 9.82465 19.2975 9.82465H31.9291C32.3172 9.82465 32.6309 9.51097 32.6309 9.1229C32.6309 8.73483 32.3172 8.42114 31.9291 8.42114H19.2975Z" fill="#FFC033"/>
<path d="M32.6309 18.9474C32.6309 18.5593 32.3172 18.2456 31.9291 18.2456H19.2975C18.9102 18.2456 18.5958 18.5593 18.5958 18.9474C18.5958 19.3354 18.9102 19.6491 19.2975 19.6491H31.9291C32.3172 19.6491 32.6309 19.3354 32.6309 18.9474Z" fill="#FFC033"/>
<path d="M14.7923 5.08148C14.4989 4.82956 14.0547 4.86254 13.8028 5.15727L9.41825 10.2717L6.73614 8.26043C6.42526 8.02815 5.98597 8.09061 5.75369 8.40078C5.5207 8.71026 5.58386 9.15026 5.89404 9.38254L9.10176 11.7896C9.22807 11.8843 9.37544 11.9299 9.52281 11.9299C9.7214 11.9299 9.9179 11.8464 10.0561 11.6843L14.8681 6.07026C15.1207 5.77622 15.0863 5.33412 14.7923 5.08148Z" fill="#FFC033"/>
<path d="M14.7923 14.9059C14.4989 14.654 14.0547 14.687 13.8028 14.9817L9.41825 20.0961L6.73614 18.0849C6.42526 17.8526 5.98597 17.9151 5.75369 18.2252C5.5207 18.5347 5.58386 18.9747 5.89404 19.207L9.10176 21.614C9.22807 21.7088 9.37544 21.7544 9.52281 21.7544C9.7214 21.7544 9.9179 21.6709 10.0561 21.5088L14.8681 15.8947C15.1207 15.6007 15.0863 15.1586 14.7923 14.9059Z" fill="#FFC033"/>
<path d="M13.8028 25.5088L9.41825 30.6224L6.73614 28.6112C6.42526 28.3796 5.98597 28.4414 5.75369 28.7516C5.5207 29.061 5.58386 29.501 5.89404 29.7333L9.10176 32.1396C9.22807 32.2344 9.37544 32.28 9.52281 32.28C9.7214 32.28 9.9179 32.1965 10.0561 32.0344L14.8681 26.421C15.12 26.127 15.0863 25.6842 14.7923 25.4323C14.4989 25.1803 14.0547 25.214 13.8028 25.5088Z" fill="#FFC033"/>
<path d="M16.4905 36.4912H8.89475C4.95721 36.4912 1.7537 33.2884 1.7537 29.3502V8.54456C1.7537 4.60632 4.95721 1.40351 8.89475 1.40351H29.7004C33.6379 1.40351 36.8414 4.60632 36.8414 8.54456V25.32C36.8414 25.7081 37.1551 26.0218 37.5432 26.0218C37.9312 26.0218 38.2449 25.7081 38.2449 25.32V8.54456C38.2449 3.83298 34.4119 0 29.7004 0H8.89475C4.18317 0 0.350189 3.83298 0.350189 8.54456V29.3502C0.350189 34.0618 4.18317 37.8947 8.89475 37.8947H16.4905C16.8779 37.8947 17.1923 37.5811 17.1923 37.193C17.1923 36.8049 16.8786 36.4912 16.4905 36.4912Z" fill="#FFC033"/>
</svg>
