<svg width="90" height="90" viewBox="0 0 90 90" fill="none" xmlns="http://www.w3.org/2000/svg">
<g clip-path="url(#clip0_629_8300)">
<path d="M89.696 40.2598C86.4009 9.29625 58.1066 -1.749 40.1029 0.220737C26.6829 1.69344 14.8277 9.03853 7.35371 20.3231C6.21237 22.0535 6.58055 24.3362 8.31097 25.4959C10.0414 26.6557 12.3241 26.0666 13.4838 24.3546C19.798 14.9661 29.7572 8.83603 40.876 7.69469C59.9475 5.72495 78.3562 17.3409 82.2405 41.0145C85.0938 58.3924 71.453 80.1515 48.9207 82.379C35.1877 83.7412 21.8046 77.6111 14.0545 66.4554L21.1419 68.0202C23.0564 68.4067 25.155 67.247 25.5416 65.1484C25.9281 63.2339 24.7684 61.1353 22.6698 60.7487L7.7403 57.4904C6.78304 57.3063 3.69038 57.4167 3.13811 60.3621L0.0822618 75.4941C-0.304322 77.4086 0.855429 79.5072 2.95403 79.8938C5.34716 80.0963 6.96713 78.7524 7.35371 76.8379L8.49506 71.6467C23.13 92.1356 48.1291 90.0186 49.6754 89.8713C73.6436 87.515 92.6046 67.3943 89.696 40.2598Z" fill="#FFC033"/>
<path d="M47.945 23.7839C45.8464 23.7839 44.116 25.5144 44.116 27.613V45.046C44.116 46.0033 44.5026 46.9605 45.2573 47.7337L62.6904 65.1668C64.9363 67.3022 67.2926 65.94 68.2498 65.3509C69.7778 63.823 69.7778 61.5219 68.2498 59.9939L51.774 43.5181V27.6314C51.7924 25.5144 50.062 23.7839 47.945 23.7839Z" fill="#FFC033"/>
</g>
<defs>
<clipPath id="clip0_629_8300">
<rect width="90" height="90" fill="white"/>
</clipPath>
</defs>
</svg>
