<svg width="50" height="50" viewBox="0 0 50 50" fill="none" xmlns="http://www.w3.org/2000/svg">
<g clip-path="url(#clip0_622_8489)">
<path d="M49.4045 20.6609L36.0061 7.2626C35.2369 6.49092 33.8919 6.49092 33.1227 7.2626L26.9777 13.4051C26.1902 14.1985 26.1902 15.4901 26.981 16.2884L28.6461 17.9342C27.5677 17.8484 26.0536 18.4067 25.9127 18.3976L22.096 17.2151L23.0194 16.2918C23.4052 15.9059 23.6185 15.3934 23.6185 14.8493C23.6185 14.3026 23.4051 13.7901 23.0202 13.4068L16.8784 7.26172C16.106 6.49258 14.7676 6.49258 13.9951 7.26426L0.599125 20.6585C0.21338 21.0443 0 21.5576 0 22.1043C0 22.6484 0.21338 23.1618 0.598343 23.5451L6.73842 29.6876C7.1226 30.0735 7.63588 30.286 8.18013 30.286C8.72437 30.286 9.23599 30.0735 9.62261 29.6876L10.0443 29.266C11.1318 31.5435 14.7851 36.1743 17.3327 38.7235L20.6827 42.0735C21.7094 43.0986 22.6819 43.316 23.3186 43.316C24.1294 43.316 24.8911 42.9819 25.5211 42.3519C26.1378 41.7344 26.312 41.1335 26.3511 40.6993C27.0895 40.8727 28.1978 40.7918 28.8703 40.1185C29.487 39.5034 29.6611 38.9001 29.7003 38.4659C30.4387 38.6392 31.547 38.5609 32.2194 37.8876C32.8361 37.2701 33.0103 36.6692 33.0486 36.235C33.792 36.3983 34.897 36.3251 35.5678 35.6542C36.1378 35.0834 36.7586 34.0633 36.3078 32.6425C37.2661 31.7484 38.8837 30.7059 40.4812 29.7559C40.8545 30.0868 41.3178 30.2851 41.8204 30.2851C42.367 30.2851 42.8795 30.0726 43.2621 29.6868L49.4038 23.5467C50.1986 22.7484 50.1986 21.4568 49.4045 20.6609ZM8.18091 27.5951L2.69171 22.1043L15.4367 9.35509L20.9259 14.8459L8.18091 27.5951ZM33.8902 33.8419C33.8011 33.8419 33.6303 33.8002 33.4786 33.7635C33.222 33.7027 32.9319 33.6319 32.6086 33.6319C31.9569 33.6319 31.5319 33.9203 31.2894 34.1619C30.7227 34.7286 30.6619 35.336 30.6253 35.7003C30.5994 35.9569 30.597 35.9711 30.5436 36.0761C30.4545 36.0761 30.2837 36.0344 30.132 35.9978C29.8754 35.9345 29.5853 35.8662 29.2603 35.8662C28.6061 35.8662 28.1803 36.1546 27.9395 36.3962C27.3728 36.9629 27.312 37.5703 27.2754 37.932C27.2495 38.1887 27.247 38.2028 27.1921 38.3079C27.1029 38.3079 26.9312 38.2662 26.7796 38.2296C26.5246 38.1687 26.2354 38.1004 25.9104 38.1004C25.2562 38.1004 24.8304 38.3888 24.592 38.6279C24.0229 39.1946 23.9621 39.802 23.9253 40.1663C23.8995 40.423 23.897 40.4371 23.752 40.5838C23.5211 40.8154 23.3678 40.8154 23.3178 40.8154C23.0895 40.8154 22.7737 40.6296 22.4494 40.3055L19.0994 36.9555C16.2419 34.0963 12.9944 29.5387 11.7411 27.5679L20.1112 19.1978L21.9578 19.7186C20.4137 20.8978 19.1878 22.587 18.1979 23.8137C17.8695 24.2212 17.6095 24.5486 17.4262 24.732C16.6445 25.5137 16.4054 26.3312 16.7153 27.1662C16.9437 27.7863 17.442 28.2846 18.0729 28.9146C18.6345 29.4762 19.342 29.7738 20.1203 29.7738C21.7137 29.7738 23.2395 28.5655 24.7154 27.3954C25.0387 27.1396 26.0104 26.482 26.6204 26.073C29.0178 28.2555 31.3304 30.3938 32.9612 32.0239C34.3119 33.3711 33.9527 33.7302 33.8902 33.8419ZM34.9527 30.5119C34.8719 30.4235 34.8186 30.3444 34.7303 30.256C32.592 28.1176 29.8019 25.8284 28.0861 24.1843C27.5594 23.6793 26.6094 23.831 25.8703 24.0584C25.0069 24.2051 24.1986 24.615 23.1644 25.4343C22.1852 26.211 20.8452 27.2727 20.121 27.2727C20.0236 27.2727 19.4569 26.8701 19.3493 26.7627C19.1418 26.5552 19.751 25.8719 20.1444 25.3835C21.516 23.6844 23.3402 21.7701 25.7293 20.8518C27.761 20.0702 29.1727 20.4068 31.0419 20.4351L38.6377 27.9451C37.2686 28.776 35.9519 29.6577 34.9527 30.5119ZM41.821 27.5894L29.0735 14.8452L34.5644 9.35675L47.3111 22.101L41.821 27.5894Z" fill="#FFC033"/>
</g>
<defs>
<clipPath id="clip0_622_8489">
<rect width="50" height="50" fill="white"/>
</clipPath>
</defs>
</svg>
