<svg width="304" height="70" viewBox="0 0 304 70" fill="none" xmlns="http://www.w3.org/2000/svg">
<path d="M113.694 18.7C114.119 18.7 114.445 18.8307 114.674 19.092C114.935 19.3533 115.066 19.68 115.066 20.072V51.432C115.066 51.922 114.903 52.314 114.576 52.608C114.282 52.8693 113.939 53 113.547 53C113.351 53 113.139 52.9673 112.91 52.902C112.681 52.804 112.502 52.6733 112.371 52.51L90.517 23.061L91.35 22.62V51.677C91.35 52.0363 91.2193 52.3467 90.958 52.608C90.6967 52.8693 90.37 53 89.978 53C89.5533 53 89.2103 52.8693 88.949 52.608C88.7203 52.3467 88.606 52.0363 88.606 51.677V20.17C88.606 19.68 88.753 19.3207 89.047 19.092C89.341 18.8307 89.6677 18.7 90.027 18.7C90.223 18.7 90.4353 18.749 90.664 18.847C90.8927 18.9123 91.0723 19.043 91.203 19.239L112.812 48.345L112.322 49.227V20.072C112.322 19.68 112.453 19.3533 112.714 19.092C113.008 18.8307 113.335 18.7 113.694 18.7ZM125.725 18.7H143.708C144.1 18.7 144.443 18.847 144.737 19.141C145.031 19.4023 145.178 19.7453 145.178 20.17C145.178 20.5947 145.031 20.9377 144.737 21.199C144.443 21.4603 144.1 21.591 143.708 21.591H126.852L127.342 20.758V34.527L126.803 33.89H141.503C141.895 33.89 142.238 34.037 142.532 34.331C142.826 34.625 142.973 34.968 142.973 35.36C142.973 35.7847 142.826 36.1277 142.532 36.389C142.238 36.6503 141.895 36.781 141.503 36.781H126.901L127.342 36.291V50.403L127.097 50.109H143.708C144.1 50.109 144.443 50.256 144.737 50.55C145.031 50.844 145.178 51.187 145.178 51.579C145.178 52.0037 145.031 52.3467 144.737 52.608C144.443 52.8693 144.1 53 143.708 53H125.725C125.333 53 124.99 52.853 124.696 52.559C124.402 52.265 124.255 51.922 124.255 51.53V20.17C124.255 19.778 124.402 19.435 124.696 19.141C124.99 18.847 125.333 18.7 125.725 18.7ZM174.106 18.553C174.498 18.553 174.825 18.6837 175.086 18.945C175.38 19.1737 175.527 19.4677 175.527 19.827C175.527 20.1537 175.413 20.464 175.184 20.758L163.914 36.095L162.297 33.694L172.93 19.19C173.257 18.7653 173.649 18.553 174.106 18.553ZM150.684 18.553C151.207 18.553 151.615 18.749 151.909 19.141L175.184 50.795C175.413 51.089 175.527 51.383 175.527 51.677C175.527 52.1343 175.364 52.4937 175.037 52.755C174.71 53.0163 174.367 53.147 174.008 53.147C173.485 53.147 173.093 52.951 172.832 52.559L149.508 20.905C149.279 20.6437 149.165 20.3497 149.165 20.023C149.165 19.5983 149.312 19.2553 149.606 18.994C149.933 18.7 150.292 18.553 150.684 18.553ZM150.537 53.147C150.112 53.147 149.786 53.0163 149.557 52.755C149.328 52.461 149.214 52.167 149.214 51.873C149.214 51.579 149.328 51.2523 149.557 50.893L160.827 35.556L162.395 38.006L151.713 52.51C151.419 52.9347 151.027 53.147 150.537 53.147Z" fill="white"/>
<path d="M206.076 18.7C206.533 18.7 206.893 18.847 207.154 19.141C207.415 19.4023 207.546 19.7453 207.546 20.17V40.456C207.546 42.8733 206.974 45.062 205.831 47.022C204.688 48.982 203.152 50.55 201.225 51.726C199.298 52.8693 197.125 53.441 194.708 53.441C192.291 53.441 190.102 52.8693 188.142 51.726C186.215 50.55 184.679 48.982 183.536 47.022C182.393 45.062 181.821 42.8733 181.821 40.456V20.17C181.821 19.7453 181.952 19.4023 182.213 19.141C182.507 18.847 182.899 18.7 183.389 18.7C183.781 18.7 184.124 18.847 184.418 19.141C184.712 19.4023 184.859 19.7453 184.859 20.17V40.456C184.859 42.3507 185.3 44.0493 186.182 45.552C187.097 47.0547 188.305 48.2633 189.808 49.178C191.311 50.06 192.944 50.501 194.708 50.501C196.537 50.501 198.203 50.06 199.706 49.178C201.209 48.2633 202.401 47.0547 203.283 45.552C204.198 44.0493 204.655 42.3507 204.655 40.456V20.17C204.655 19.7453 204.786 19.4023 205.047 19.141C205.308 18.847 205.651 18.7 206.076 18.7ZM225.731 53.49C223.248 53.5227 221.092 53.1307 219.263 52.314C217.434 51.4973 215.686 50.2723 214.02 48.639C213.857 48.5083 213.71 48.345 213.579 48.149C213.481 47.953 213.432 47.7243 213.432 47.463C213.432 47.071 213.579 46.7117 213.873 46.385C214.2 46.0583 214.559 45.895 214.951 45.895C215.343 45.895 215.702 46.0583 216.029 46.385C217.303 47.757 218.74 48.8023 220.341 49.521C221.974 50.2397 223.722 50.599 225.584 50.599C227.152 50.599 228.54 50.354 229.749 49.864C230.99 49.374 231.97 48.6717 232.689 47.757C233.408 46.8423 233.767 45.7807 233.767 44.572C233.767 43.0693 233.359 41.8607 232.542 40.946C231.725 39.9987 230.647 39.231 229.308 38.643C227.969 38.0223 226.482 37.467 224.849 36.977C223.51 36.585 222.236 36.144 221.027 35.654C219.818 35.1313 218.74 34.5107 217.793 33.792C216.846 33.0407 216.111 32.126 215.588 31.048C215.065 29.97 214.804 28.6633 214.804 27.128C214.804 25.3967 215.261 23.8613 216.176 22.522C217.091 21.1827 218.381 20.1373 220.047 19.386C221.746 18.602 223.706 18.21 225.927 18.21C227.854 18.21 229.7 18.5367 231.464 19.19C233.261 19.8433 234.682 20.807 235.727 22.081C236.217 22.6037 236.462 23.0773 236.462 23.502C236.462 23.8287 236.299 24.1553 235.972 24.482C235.645 24.8087 235.286 24.972 234.894 24.972C234.567 24.972 234.29 24.8577 234.061 24.629C233.506 23.943 232.803 23.3387 231.954 22.816C231.105 22.2607 230.157 21.836 229.112 21.542C228.099 21.248 227.038 21.101 225.927 21.101C224.392 21.101 223.003 21.346 221.762 21.836C220.553 22.2933 219.59 22.963 218.871 23.845C218.185 24.727 217.842 25.7887 217.842 27.03C217.842 28.402 218.234 29.529 219.018 30.411C219.802 31.293 220.831 32.028 222.105 32.616C223.379 33.1713 224.735 33.694 226.172 34.184C227.577 34.576 228.916 35.0333 230.19 35.556C231.497 36.046 232.64 36.6667 233.62 37.418C234.633 38.1693 235.417 39.1167 235.972 40.26C236.56 41.4033 236.854 42.8407 236.854 44.572C236.854 46.238 236.38 47.7407 235.433 49.08C234.486 50.4193 233.179 51.481 231.513 52.265C229.88 53.049 227.952 53.4573 225.731 53.49Z" fill="#FFC033"/>
<g clip-path="url(#clip0_629_8260)">
<path d="M35.0002 24.528C29.2642 24.528 24.5978 29.1945 24.5978 34.9303C24.5978 40.6661 29.2642 45.3327 35.0002 45.3327C40.7363 45.3327 45.4026 40.6661 45.4026 34.9303C45.4026 29.1945 40.736 24.528 35.0002 24.528ZM35.0002 41.4799C31.3888 41.4799 28.4506 38.5419 28.4506 34.9303C28.4506 31.3187 31.3886 28.3807 35.0002 28.3807C38.6118 28.3807 41.5498 31.3187 41.5498 34.9303C41.5498 38.5419 38.6114 41.4799 35.0002 41.4799Z" fill="#2E2E2E"/>
<path d="M35.0002 24.528C29.2642 24.528 24.5978 29.1945 24.5978 34.9303C24.5978 40.6661 29.2642 45.3327 35.0002 45.3327C40.7363 45.3327 45.4026 40.6661 45.4026 34.9303C45.4026 29.1945 40.736 24.528 35.0002 24.528ZM35.0002 41.4799C31.3888 41.4799 28.4506 38.5419 28.4506 34.9303C28.4506 31.3187 31.3886 28.3807 35.0002 28.3807C38.6118 28.3807 41.5498 31.3187 41.5498 34.9303C41.5498 38.5419 38.6114 41.4799 35.0002 41.4799Z" fill="#6750A4" fill-opacity="0.08"/>
<path d="M69.0864 42.6327L63.1955 37.3146V32.546L69.0862 27.2283C69.691 26.682 69.887 25.814 69.5749 25.0611L66.4267 17.4607C66.1148 16.7079 65.3651 16.2331 64.549 16.2741L56.6232 16.6788L53.2516 13.3071L53.6563 5.3816C53.6979 4.56755 53.2226 3.81529 52.4697 3.5036L44.869 0.355236C44.1163 0.0428527 43.2481 0.239307 42.702 0.843711L37.3837 6.73457H32.6155L27.2976 0.843711C26.7513 0.239076 25.8833 0.0435469 25.1306 0.355236L17.5302 3.50337C16.777 3.81529 16.302 4.56755 16.3436 5.38137L16.7485 13.3069L13.3767 16.6785L5.45092 16.2738C4.63965 16.2303 3.88484 16.7075 3.57315 17.4604L0.424559 25.0608C0.112639 25.814 0.308399 26.6818 0.913266 27.2281L6.80389 32.5458V37.3144L0.913728 42.6325C0.308862 43.1788 0.112871 44.0468 0.425022 44.7998L3.57315 52.4002C3.88507 53.1534 4.63826 53.6314 5.45092 53.5868L13.3767 53.1821L16.7485 56.5537L16.3436 64.4792C16.302 65.2933 16.7772 66.0455 17.5302 66.3572L25.1306 69.5056C25.8838 69.8184 26.7515 69.6217 27.2976 69.0171L32.616 63.1263H37.3841L42.7025 69.0171C43.0757 69.4302 43.5987 69.6525 44.133 69.6525C44.3808 69.6525 44.6309 69.6044 44.8695 69.5058L52.4699 66.3575C53.2231 66.0455 53.6982 65.2933 53.6565 64.4795L53.2518 56.5539L56.6235 53.1823L64.5492 53.587C65.3605 53.6282 66.1153 53.1534 66.427 52.4004L69.5751 44.8C69.887 44.0468 69.6912 43.1791 69.0864 42.6327ZM63.3876 49.6699L55.9647 49.2907C55.4207 49.2613 54.8896 49.4675 54.5043 49.8525L49.9218 54.4351C49.5363 54.8206 49.3324 55.3509 49.36 55.8954L49.739 63.3183L44.6506 65.4261L39.6698 59.9089C39.3047 59.5047 38.785 59.2735 38.24 59.2735H31.7596C31.2147 59.2735 30.695 59.5045 30.3298 59.9089L25.349 65.4261L20.2607 63.3183L20.6399 55.8954C20.6677 55.3509 20.4634 54.8203 20.0779 54.4351L15.4955 49.8525C15.1103 49.4672 14.5804 49.2624 14.0352 49.2907L6.61229 49.6699L4.50452 44.5816L10.0214 39.6008C10.4259 39.2352 10.6568 38.7159 10.6568 38.171V31.6901C10.6568 31.1451 10.4259 30.6254 10.0214 30.2603L4.50452 25.2795L6.61229 20.1911L14.0352 20.5704C14.5799 20.5991 15.1103 20.3938 15.4955 20.0085L20.0779 15.4262C20.4634 15.0407 20.6677 14.5104 20.6399 13.9654L20.2607 6.54251L25.349 4.43473L30.3298 9.95165C30.695 10.3559 31.2147 10.5871 31.7596 10.5871H38.24C38.785 10.5871 39.3047 10.3561 39.6698 9.95165L44.6506 4.43473L49.739 6.54251L49.36 13.9654C49.3322 14.5099 49.5361 15.0403 49.9218 15.4262L54.5043 20.0085C54.8898 20.3938 55.4204 20.6018 55.9647 20.5704L63.3876 20.1911L65.4954 25.2795L59.9782 30.2603C59.5737 30.6259 59.3428 31.1451 59.3428 31.6901V38.171C59.3428 38.7159 59.5737 39.2356 59.9782 39.6008L65.4954 44.5816L63.3876 49.6699Z" fill="#2E2E2E"/>
<path d="M69.0864 42.6327L63.1955 37.3146V32.546L69.0862 27.2283C69.691 26.682 69.887 25.814 69.5749 25.0611L66.4267 17.4607C66.1148 16.7079 65.3651 16.2331 64.549 16.2741L56.6232 16.6788L53.2516 13.3071L53.6563 5.3816C53.6979 4.56755 53.2226 3.81529 52.4697 3.5036L44.869 0.355236C44.1163 0.0428527 43.2481 0.239307 42.702 0.843711L37.3837 6.73457H32.6155L27.2976 0.843711C26.7513 0.239076 25.8833 0.0435469 25.1306 0.355236L17.5302 3.50337C16.777 3.81529 16.302 4.56755 16.3436 5.38137L16.7485 13.3069L13.3767 16.6785L5.45092 16.2738C4.63965 16.2303 3.88484 16.7075 3.57315 17.4604L0.424559 25.0608C0.112639 25.814 0.308399 26.6818 0.913266 27.2281L6.80389 32.5458V37.3144L0.913728 42.6325C0.308862 43.1788 0.112871 44.0468 0.425022 44.7998L3.57315 52.4002C3.88507 53.1534 4.63826 53.6314 5.45092 53.5868L13.3767 53.1821L16.7485 56.5537L16.3436 64.4792C16.302 65.2933 16.7772 66.0455 17.5302 66.3572L25.1306 69.5056C25.8838 69.8184 26.7515 69.6217 27.2976 69.0171L32.616 63.1263H37.3841L42.7025 69.0171C43.0757 69.4302 43.5987 69.6525 44.133 69.6525C44.3808 69.6525 44.6309 69.6044 44.8695 69.5058L52.4699 66.3575C53.2231 66.0455 53.6982 65.2933 53.6565 64.4795L53.2518 56.5539L56.6235 53.1823L64.5492 53.587C65.3605 53.6282 66.1153 53.1534 66.427 52.4004L69.5751 44.8C69.887 44.0468 69.6912 43.1791 69.0864 42.6327ZM63.3876 49.6699L55.9647 49.2907C55.4207 49.2613 54.8896 49.4675 54.5043 49.8525L49.9218 54.4351C49.5363 54.8206 49.3324 55.3509 49.36 55.8954L49.739 63.3183L44.6506 65.4261L39.6698 59.9089C39.3047 59.5047 38.785 59.2735 38.24 59.2735H31.7596C31.2147 59.2735 30.695 59.5045 30.3298 59.9089L25.349 65.4261L20.2607 63.3183L20.6399 55.8954C20.6677 55.3509 20.4634 54.8203 20.0779 54.4351L15.4955 49.8525C15.1103 49.4672 14.5804 49.2624 14.0352 49.2907L6.61229 49.6699L4.50452 44.5816L10.0214 39.6008C10.4259 39.2352 10.6568 38.7159 10.6568 38.171V31.6901C10.6568 31.1451 10.4259 30.6254 10.0214 30.2603L4.50452 25.2795L6.61229 20.1911L14.0352 20.5704C14.5799 20.5991 15.1103 20.3938 15.4955 20.0085L20.0779 15.4262C20.4634 15.0407 20.6677 14.5104 20.6399 13.9654L20.2607 6.54251L25.349 4.43473L30.3298 9.95165C30.695 10.3559 31.2147 10.5871 31.7596 10.5871H38.24C38.785 10.5871 39.3047 10.3561 39.6698 9.95165L44.6506 4.43473L49.739 6.54251L49.36 13.9654C49.3322 14.5099 49.5361 15.0403 49.9218 15.4262L54.5043 20.0085C54.8898 20.3938 55.4204 20.6018 55.9647 20.5704L63.3876 20.1911L65.4954 25.2795L59.9782 30.2603C59.5737 30.6259 59.3428 31.1451 59.3428 31.6901V38.171C59.3428 38.7159 59.5737 39.2356 59.9782 39.6008L65.4954 44.5816L63.3876 49.6699Z" fill="#6750A4" fill-opacity="0.08"/>
<path d="M35.0003 16.72C24.9591 16.72 16.7899 24.8894 16.7899 34.9303C16.7899 44.9714 24.9591 53.1406 35.0003 53.1406C45.0414 53.1406 53.2106 44.9712 53.2106 34.9303C53.2104 24.8892 45.0412 16.72 35.0003 16.72ZM35.0003 49.2879C27.0833 49.2879 20.6426 42.8472 20.6426 34.9303C20.6426 27.0134 27.0833 20.5727 35.0003 20.5727C42.9172 20.5727 49.3579 27.0134 49.3579 34.9303C49.3579 42.8472 42.9168 49.2879 35.0003 49.2879Z" fill="#2E2E2E"/>
<path d="M35.0003 16.72C24.9591 16.72 16.7899 24.8894 16.7899 34.9303C16.7899 44.9714 24.9591 53.1406 35.0003 53.1406C45.0414 53.1406 53.2106 44.9712 53.2106 34.9303C53.2104 24.8892 45.0412 16.72 35.0003 16.72ZM35.0003 49.2879C27.0833 49.2879 20.6426 42.8472 20.6426 34.9303C20.6426 27.0134 27.0833 20.5727 35.0003 20.5727C42.9172 20.5727 49.3579 27.0134 49.3579 34.9303C49.3579 42.8472 42.9168 49.2879 35.0003 49.2879Z" fill="#6750A4" fill-opacity="0.08"/>
<g clip-path="url(#clip1_629_8260)">
<path d="M60.4213 30.4107L46.4646 16.4541C45.6634 15.6503 44.2624 15.6503 43.4612 16.4541L37.0601 22.8526C36.2398 23.679 36.2398 25.0244 37.0635 25.856L38.798 27.5704C37.6747 27.481 36.0974 28.0626 35.9508 28.0531L31.975 26.8213L32.9368 25.8595C33.3387 25.4576 33.5609 24.9237 33.5609 24.3569C33.5609 23.7874 33.3386 23.2536 32.9376 22.8543L26.54 16.4532C25.7353 15.652 24.3412 15.652 23.5365 16.4559L9.5824 30.4082C9.18058 30.8101 8.95831 31.3448 8.95831 31.9142C8.95831 32.481 9.18058 33.0158 9.58159 33.4151L15.9775 39.8135C16.3777 40.2155 16.9124 40.4368 17.4793 40.4368C18.0462 40.4368 18.5791 40.2155 18.9819 39.8135L19.4211 39.3743C20.5539 41.7467 24.3595 46.5705 27.0132 49.2259L30.5028 52.7155C31.5723 53.7832 32.5853 54.0098 33.2485 54.0098C34.0931 54.0098 34.8865 53.6617 35.5428 53.0054C36.1852 52.3622 36.3666 51.7363 36.4074 51.284C37.1766 51.4646 38.331 51.3804 39.0315 50.679C39.6739 50.0383 39.8553 49.4098 39.8961 48.9576C40.6652 49.1381 41.8197 49.0566 42.5202 48.3552C43.1626 47.7119 43.344 47.086 43.384 46.6337C44.1583 46.8038 45.3093 46.7275 46.0081 46.0287C46.6019 45.4341 47.2485 44.3716 46.779 42.8916C47.7772 41.9602 49.4622 40.8742 51.1262 39.8846C51.5151 40.2293 51.9977 40.4359 52.5212 40.4359C53.0906 40.4359 53.6245 40.2145 54.023 39.8126L60.4206 33.4167C61.2485 32.5852 61.2485 31.2398 60.4213 30.4107ZM17.4801 37.6339L11.7622 31.9142L25.0382 18.6338L30.7561 24.3535L17.4801 37.6339ZM44.2606 44.1409C44.1678 44.1409 43.9898 44.0974 43.8319 44.0593C43.5645 43.9959 43.2624 43.9221 42.9256 43.9221C42.2468 43.9221 41.8041 44.2225 41.5515 44.4742C40.9612 45.0645 40.8978 45.6973 40.8596 46.0767C40.8327 46.344 40.8301 46.3588 40.7746 46.4682C40.6817 46.4682 40.5038 46.4248 40.3458 46.3867C40.0785 46.3207 39.7764 46.2495 39.4378 46.2495C38.7564 46.2495 38.3128 46.5499 38.062 46.8016C37.4717 47.3919 37.4083 48.0246 37.3701 48.4014C37.3432 48.6688 37.3406 48.6835 37.2834 48.793C37.1905 48.793 37.0117 48.7495 36.8537 48.7114C36.5881 48.648 36.2869 48.5768 35.9483 48.5768C35.2669 48.5768 34.8233 48.8772 34.575 49.1263C33.9822 49.7167 33.9188 50.3494 33.8805 50.7288C33.8536 50.9962 33.851 51.0109 33.7 51.1637C33.4595 51.405 33.2998 51.405 33.2477 51.405C33.0099 51.405 32.6809 51.2114 32.3432 50.8738L28.8535 47.3842C25.8769 44.4059 22.4942 39.6584 21.1886 37.6055L29.9074 28.8867L31.8311 29.4292C30.2226 30.6575 28.9456 32.4171 27.9144 33.6948C27.5724 34.1193 27.3015 34.4604 27.1106 34.6515C26.2964 35.4657 26.0472 36.3172 26.3701 37.1871C26.6079 37.8329 27.1271 38.352 27.7842 39.0083C28.3692 39.5933 29.1062 39.9033 29.917 39.9033C31.5767 39.9033 33.1661 38.6446 34.7035 37.4258C35.0403 37.1593 36.0525 36.4744 36.6879 36.0483C39.1852 38.3217 41.5941 40.5491 43.2929 42.2471C44.6999 43.6504 44.3257 44.0246 44.2606 44.1409ZM45.3674 40.6721C45.2832 40.58 45.2276 40.4976 45.1357 40.4056C42.9083 38.1781 40.002 35.7935 38.2147 34.0809C37.6661 33.5549 36.6765 33.7128 35.9065 33.9498C35.0071 34.1025 34.1652 34.5296 33.0879 35.383C32.0679 36.192 30.6721 37.298 29.9177 37.298C29.8162 37.298 29.2259 36.8786 29.1139 36.7668C28.8977 36.5506 29.5323 35.8388 29.942 35.3301C31.3709 33.5601 33.271 31.5661 35.7597 30.6096C37.876 29.7954 39.3466 30.146 41.2936 30.1755L49.2059 37.9984C47.7797 38.8639 46.4082 39.7823 45.3674 40.6721ZM52.5219 37.6279L39.2432 24.3526L44.9629 18.6355L58.2407 31.9108L52.5219 37.6279Z" fill="#FFC033"/>
</g>
</g>
<defs>
<clipPath id="clip0_629_8260">
<rect width="69.4444" height="69.4444" fill="white" transform="translate(0.277771 0.208344)"/>
</clipPath>
<clipPath id="clip1_629_8260">
<rect width="52.0833" height="52.0833" fill="white" transform="translate(8.95831 8.88889)"/>
</clipPath>
</defs>
</svg>
