<svg width="40" height="40" viewBox="0 0 40 40" fill="none" xmlns="http://www.w3.org/2000/svg">
<path fill-rule="evenodd" clip-rule="evenodd" d="M31.6667 3.33337C34.3249 3.33337 36.5058 5.41933 36.6582 8.04006L36.6667 8.33337V25C36.6667 27.6583 34.5807 29.8391 31.96 29.9915L31.6667 30H25.8333L21.3333 36C21.0183 36.42 20.525 36.6667 20 36.6667C19.5406 36.6667 19.1055 36.4779 18.7929 36.1493L18.6667 36L14.1667 30H8.33333C5.67512 30 3.49423 27.9141 3.34184 25.2934L3.33333 25V8.33337C3.33333 5.67516 5.41929 3.49427 8.04002 3.34188L8.33333 3.33337H31.6667ZM31.6667 6.66671H8.33333C7.4806 6.66671 6.77444 7.31195 6.67791 8.1394L6.66667 8.33337V25C6.66667 25.8528 7.31191 26.5589 8.13936 26.6555L8.33333 26.6667H15C15.4594 26.6667 15.8945 26.8556 16.2071 27.1841L16.3333 27.3334L20 32.2217L23.6667 27.3334C23.9423 26.9659 24.3545 26.7311 24.8049 26.6781L25 26.6667H31.6667C32.5194 26.6667 33.2256 26.0215 33.3221 25.194L33.3333 25V8.33337C33.3333 7.48064 32.6881 6.77448 31.8606 6.67795L31.6667 6.66671ZM28.3333 18.3334C29.2533 18.3334 30 19.08 30 20C30 20.8543 29.3562 21.5592 28.5276 21.6555L28.3333 21.6667H11.6667C10.7467 21.6667 10 20.92 10 20C10 19.1458 10.6438 18.4409 11.4724 18.3446L11.6667 18.3334H28.3333ZM28.3333 11.6667C29.2533 11.6667 30 12.4134 30 13.3334C30 14.1877 29.3562 14.8925 28.5276 14.9888L28.3333 15H11.6667C10.7467 15 10 14.2534 10 13.3334C10 12.4791 10.6438 11.7743 11.4724 11.6779L11.6667 11.6667H28.3333Z" fill="#FFC033"/>
</svg>
