<svg width="40" height="40" viewBox="0 0 40 40" fill="none" xmlns="http://www.w3.org/2000/svg">
<path d="M2.61987 11.5202H8.87982C10.3244 11.5202 11.4997 10.3449 11.4997 8.90033V2.64038C11.4997 1.19578 10.3244 0.0205078 8.87982 0.0205078H2.61987C1.17527 0.0205078 0 1.19578 0 2.64038V8.90033C0 10.3449 1.17527 11.5202 2.61987 11.5202ZM1.99959 2.64038C1.99959 2.29759 2.27709 2.0201 2.61987 2.0201H8.87982C9.22261 2.0201 9.5001 2.29759 9.5001 2.64038V8.90033C9.5001 9.24312 9.22261 9.52061 8.87982 9.52061H2.61987C2.27709 9.52061 1.99959 9.24312 1.99959 8.90033V2.64038Z" fill="#FFC033"/>
<path d="M0 23.1342C0 24.5788 1.17527 25.7541 2.61987 25.7541H8.87982C10.3244 25.7541 11.4997 24.5788 11.4997 23.1342V16.8743C11.4997 15.4297 10.3244 14.2544 8.87982 14.2544H2.61987C1.17527 14.2544 0 15.4297 0 16.8743V23.1342ZM1.99959 16.8661C1.99959 16.5233 2.27709 16.2458 2.61987 16.2458H8.87982C9.22261 16.2458 9.5001 16.5233 9.5001 16.8661V23.1261C9.5001 23.4688 9.22261 23.7463 8.87982 23.7463H2.61987C2.27709 23.7463 1.99959 23.4688 1.99959 23.1261V16.8661Z" fill="#FFC033"/>
<path d="M0 37.3598C0 38.8044 1.17527 39.9797 2.61987 39.9797H8.87982C10.3244 39.9797 11.4997 38.8044 11.4997 37.3598V31.0999C11.4997 29.6552 10.3244 28.48 8.87982 28.48H2.61987C1.17527 28.48 0 29.6552 0 31.0999V37.3598ZM1.99959 31.0999C1.99959 30.7571 2.27709 30.4796 2.61987 30.4796H8.87982C9.22261 30.4796 9.5001 30.7571 9.5001 31.0999V37.3598C9.5001 37.7026 9.22261 37.9801 8.87982 37.9801H2.61987C2.27709 37.9801 1.99959 37.7026 1.99959 37.3598V31.0999Z" fill="#FFC033"/>
<path d="M38.9961 2.59131H16.5109C15.9559 2.59131 15.507 3.0402 15.507 3.59518C15.507 4.15017 15.9559 4.59906 16.5109 4.59906H38.9961C39.5511 4.59906 40 4.15017 40 3.59518C40 3.0402 39.5511 2.59131 38.9961 2.59131Z" fill="#FFC033"/>
<path d="M38.9961 6.94971H16.5109C15.9559 6.94971 15.507 7.39859 15.507 7.95358C15.507 8.50857 15.9559 8.95746 16.5109 8.95746H38.9961C39.5511 8.95746 40 8.50857 40 7.95358C39.9918 7.39859 39.5511 6.94971 38.9961 6.94971Z" fill="#FFC033"/>
<path d="M38.9961 16.8171H16.5109C15.9559 16.8171 15.507 17.266 15.507 17.821C15.507 18.376 15.9559 18.8249 16.5109 18.8249H38.9961C39.5511 18.8249 40 18.376 40 17.821C39.9918 17.266 39.5511 16.8171 38.9961 16.8171Z" fill="#FFC033"/>
<path d="M38.9961 21.1836H16.5109C15.9559 21.1836 15.507 21.6325 15.507 22.1875C15.507 22.7425 15.9559 23.1913 16.5109 23.1913H38.9961C39.5511 23.1913 40 22.7425 40 22.1875C39.9918 21.6325 39.5511 21.1836 38.9961 21.1836Z" fill="#FFC033"/>
<path d="M38.9961 31.051H16.5109C15.9559 31.051 15.507 31.4999 15.507 32.0549C15.507 32.6099 15.9559 33.0588 16.5109 33.0588H38.9961C39.5511 33.0588 40 32.6099 40 32.0549C39.9918 31.4999 39.5511 31.051 38.9961 31.051Z" fill="#FFC033"/>
<path d="M39.9919 36.4131C39.9919 35.8581 39.543 35.4092 38.988 35.4092H16.5109C15.9559 35.4092 15.507 35.8581 15.507 36.4131C15.507 36.968 15.9559 37.4169 16.5109 37.4169H38.9961C39.5511 37.4088 39.9919 36.9599 39.9919 36.4131Z" fill="#FFC033"/>
</svg>
