<svg width="40" height="38" viewBox="0 0 40 38" fill="none" xmlns="http://www.w3.org/2000/svg">
<path d="M28.5878 24.092H26.781L26.1407 23.5146C28.3819 21.0769 29.7313 17.9121 29.7313 14.4693C29.7313 6.79259 23.076 0.569946 14.8656 0.569946C6.65523 0.569946 0 6.79259 0 14.4693C0 22.146 6.65523 28.3687 14.8656 28.3687C18.5477 28.3687 21.9325 27.1071 24.5397 25.0115L25.1572 25.6102V27.2995L36.5923 37.9699L40 34.7838L28.5878 24.092ZM14.8656 24.092C9.17095 24.092 4.57404 19.7938 4.57404 14.4693C4.57404 9.14479 9.17095 4.84668 14.8656 4.84668C20.5603 4.84668 25.1572 9.14479 25.1572 14.4693C25.1572 19.7938 20.5603 24.092 14.8656 24.092Z" fill="#FFC033"/>
</svg>
