<svg width="90" height="90" viewBox="0 0 90 90" fill="none" xmlns="http://www.w3.org/2000/svg">
<path d="M0 45C0 66.9073 20.1981 84.7346 45.0092 84.7346C53.2244 84.7346 61.2191 82.7681 68.2214 79.0372C71.8787 80.967 76.0323 81.941 80.5902 81.941C82.0237 81.941 83.4572 81.8491 84.8907 81.647C86.3059 81.4448 87.427 80.4156 87.7394 79.0372C88.0519 77.6221 87.4821 76.2069 86.2508 75.3983C83.9167 73.8545 82.0972 71.7225 80.8658 69.0025C86.7654 62.1289 90 53.6564 90 45C90 23.0928 69.8019 5.2655 44.9908 5.2655C20.1797 5.2655 0 23.0928 0 45ZM4.50276 45C4.50276 25.5739 22.6792 9.76826 45.0092 9.76826C67.3392 9.76826 85.5156 25.5739 85.5156 45C85.5156 53.105 82.428 60.7138 76.602 67.036C76.0323 67.6609 75.8485 68.543 76.1425 69.3517C77.3555 72.6047 79.1566 75.3247 81.5275 77.4383C76.988 77.6037 72.8528 76.6112 69.3976 74.5345C69.0484 74.3139 68.6441 74.222 68.2397 74.222C67.8538 74.222 67.4678 74.3139 67.1186 74.5161C60.5207 78.2653 52.8752 80.2502 45.0092 80.2502C22.6792 80.2318 4.50276 64.4262 4.50276 45Z" fill="#FFC033"/>
<path d="M56.8082 34.028L39.5324 51.212L33.2285 44.8714C32.3463 43.9892 30.9312 43.9892 30.049 44.8714C29.1668 45.7535 29.1668 47.1687 30.049 48.0509L37.9518 55.9904C38.3929 56.4315 38.9626 56.6521 39.5507 56.6521C40.1205 56.6521 40.6902 56.4315 41.1313 55.9904L60.0061 37.2259C60.8883 36.3437 60.8883 34.9286 60.0061 34.0464C59.1056 33.1458 57.6904 33.1458 56.8082 34.028Z" fill="#FFC033"/>
</svg>
