<svg width="70" height="70" viewBox="0 0 70 70" fill="none" xmlns="http://www.w3.org/2000/svg">
<g clip-path="url(#clip0_622_8930)">
<path d="M35.0002 24.528C29.2642 24.528 24.5978 29.1945 24.5978 34.9303C24.5978 40.6661 29.2642 45.3327 35.0002 45.3327C40.7363 45.3327 45.4026 40.6661 45.4026 34.9303C45.4026 29.1945 40.736 24.528 35.0002 24.528ZM35.0002 41.4799C31.3888 41.4799 28.4506 38.5419 28.4506 34.9303C28.4506 31.3187 31.3886 28.3807 35.0002 28.3807C38.6118 28.3807 41.5498 31.3187 41.5498 34.9303C41.5498 38.5419 38.6114 41.4799 35.0002 41.4799Z" fill="#2E2E2E"/>
<path d="M35.0002 24.528C29.2642 24.528 24.5978 29.1945 24.5978 34.9303C24.5978 40.6661 29.2642 45.3327 35.0002 45.3327C40.7363 45.3327 45.4026 40.6661 45.4026 34.9303C45.4026 29.1945 40.736 24.528 35.0002 24.528ZM35.0002 41.4799C31.3888 41.4799 28.4506 38.5419 28.4506 34.9303C28.4506 31.3187 31.3886 28.3807 35.0002 28.3807C38.6118 28.3807 41.5498 31.3187 41.5498 34.9303C41.5498 38.5419 38.6114 41.4799 35.0002 41.4799Z" fill="#6750A4" fill-opacity="0.08"/>
<path d="M69.0864 42.6327L63.1955 37.3146V32.546L69.0862 27.2283C69.691 26.682 69.887 25.814 69.5749 25.0611L66.4267 17.4607C66.1148 16.7079 65.3651 16.2331 64.549 16.2741L56.6232 16.6788L53.2516 13.3071L53.6563 5.3816C53.6979 4.56755 53.2226 3.81529 52.4697 3.5036L44.869 0.355236C44.1163 0.0428527 43.2481 0.239307 42.702 0.843711L37.3837 6.73457H32.6155L27.2976 0.843711C26.7513 0.239076 25.8833 0.0435469 25.1306 0.355236L17.5302 3.50337C16.777 3.81529 16.302 4.56755 16.3436 5.38137L16.7485 13.3069L13.3767 16.6785L5.45092 16.2738C4.63965 16.2303 3.88484 16.7075 3.57315 17.4604L0.424559 25.0608C0.112639 25.814 0.308399 26.6818 0.913266 27.2281L6.80389 32.5458V37.3144L0.913728 42.6325C0.308862 43.1788 0.112871 44.0468 0.425022 44.7998L3.57315 52.4002C3.88507 53.1534 4.63826 53.6314 5.45092 53.5868L13.3767 53.1821L16.7485 56.5537L16.3436 64.4792C16.302 65.2933 16.7772 66.0455 17.5302 66.3572L25.1306 69.5056C25.8838 69.8184 26.7515 69.6217 27.2976 69.0171L32.616 63.1263H37.3841L42.7025 69.0171C43.0757 69.4302 43.5987 69.6525 44.133 69.6525C44.3808 69.6525 44.6309 69.6044 44.8695 69.5058L52.4699 66.3575C53.2231 66.0455 53.6982 65.2933 53.6565 64.4795L53.2518 56.5539L56.6235 53.1823L64.5492 53.587C65.3605 53.6282 66.1153 53.1534 66.427 52.4004L69.5751 44.8C69.887 44.0468 69.6912 43.1791 69.0864 42.6327ZM63.3876 49.6699L55.9647 49.2907C55.4207 49.2613 54.8896 49.4675 54.5043 49.8525L49.9218 54.4351C49.5363 54.8206 49.3324 55.3509 49.36 55.8954L49.739 63.3183L44.6506 65.4261L39.6698 59.9089C39.3047 59.5047 38.785 59.2735 38.24 59.2735H31.7596C31.2147 59.2735 30.695 59.5045 30.3298 59.9089L25.349 65.4261L20.2607 63.3183L20.6399 55.8954C20.6677 55.3509 20.4634 54.8203 20.0779 54.4351L15.4955 49.8525C15.1103 49.4672 14.5804 49.2624 14.0352 49.2907L6.61229 49.6699L4.50452 44.5816L10.0214 39.6008C10.4259 39.2352 10.6568 38.7159 10.6568 38.171V31.6901C10.6568 31.1451 10.4259 30.6254 10.0214 30.2603L4.50452 25.2795L6.61229 20.1911L14.0352 20.5704C14.5799 20.5991 15.1103 20.3938 15.4955 20.0085L20.0779 15.4262C20.4634 15.0407 20.6677 14.5104 20.6399 13.9654L20.2607 6.54251L25.349 4.43473L30.3298 9.95165C30.695 10.3559 31.2147 10.5871 31.7596 10.5871H38.24C38.785 10.5871 39.3047 10.3561 39.6698 9.95165L44.6506 4.43473L49.739 6.54251L49.36 13.9654C49.3322 14.5099 49.5361 15.0403 49.9218 15.4262L54.5043 20.0085C54.8898 20.3938 55.4204 20.6018 55.9647 20.5704L63.3876 20.1911L65.4954 25.2795L59.9782 30.2603C59.5737 30.6259 59.3428 31.1451 59.3428 31.6901V38.171C59.3428 38.7159 59.5737 39.2356 59.9782 39.6008L65.4954 44.5816L63.3876 49.6699Z" fill="#2E2E2E"/>
<path d="M69.0864 42.6327L63.1955 37.3146V32.546L69.0862 27.2283C69.691 26.682 69.887 25.814 69.5749 25.0611L66.4267 17.4607C66.1148 16.7079 65.3651 16.2331 64.549 16.2741L56.6232 16.6788L53.2516 13.3071L53.6563 5.3816C53.6979 4.56755 53.2226 3.81529 52.4697 3.5036L44.869 0.355236C44.1163 0.0428527 43.2481 0.239307 42.702 0.843711L37.3837 6.73457H32.6155L27.2976 0.843711C26.7513 0.239076 25.8833 0.0435469 25.1306 0.355236L17.5302 3.50337C16.777 3.81529 16.302 4.56755 16.3436 5.38137L16.7485 13.3069L13.3767 16.6785L5.45092 16.2738C4.63965 16.2303 3.88484 16.7075 3.57315 17.4604L0.424559 25.0608C0.112639 25.814 0.308399 26.6818 0.913266 27.2281L6.80389 32.5458V37.3144L0.913728 42.6325C0.308862 43.1788 0.112871 44.0468 0.425022 44.7998L3.57315 52.4002C3.88507 53.1534 4.63826 53.6314 5.45092 53.5868L13.3767 53.1821L16.7485 56.5537L16.3436 64.4792C16.302 65.2933 16.7772 66.0455 17.5302 66.3572L25.1306 69.5056C25.8838 69.8184 26.7515 69.6217 27.2976 69.0171L32.616 63.1263H37.3841L42.7025 69.0171C43.0757 69.4302 43.5987 69.6525 44.133 69.6525C44.3808 69.6525 44.6309 69.6044 44.8695 69.5058L52.4699 66.3575C53.2231 66.0455 53.6982 65.2933 53.6565 64.4795L53.2518 56.5539L56.6235 53.1823L64.5492 53.587C65.3605 53.6282 66.1153 53.1534 66.427 52.4004L69.5751 44.8C69.887 44.0468 69.6912 43.1791 69.0864 42.6327ZM63.3876 49.6699L55.9647 49.2907C55.4207 49.2613 54.8896 49.4675 54.5043 49.8525L49.9218 54.4351C49.5363 54.8206 49.3324 55.3509 49.36 55.8954L49.739 63.3183L44.6506 65.4261L39.6698 59.9089C39.3047 59.5047 38.785 59.2735 38.24 59.2735H31.7596C31.2147 59.2735 30.695 59.5045 30.3298 59.9089L25.349 65.4261L20.2607 63.3183L20.6399 55.8954C20.6677 55.3509 20.4634 54.8203 20.0779 54.4351L15.4955 49.8525C15.1103 49.4672 14.5804 49.2624 14.0352 49.2907L6.61229 49.6699L4.50452 44.5816L10.0214 39.6008C10.4259 39.2352 10.6568 38.7159 10.6568 38.171V31.6901C10.6568 31.1451 10.4259 30.6254 10.0214 30.2603L4.50452 25.2795L6.61229 20.1911L14.0352 20.5704C14.5799 20.5991 15.1103 20.3938 15.4955 20.0085L20.0779 15.4262C20.4634 15.0407 20.6677 14.5104 20.6399 13.9654L20.2607 6.54251L25.349 4.43473L30.3298 9.95165C30.695 10.3559 31.2147 10.5871 31.7596 10.5871H38.24C38.785 10.5871 39.3047 10.3561 39.6698 9.95165L44.6506 4.43473L49.739 6.54251L49.36 13.9654C49.3322 14.5099 49.5361 15.0403 49.9218 15.4262L54.5043 20.0085C54.8898 20.3938 55.4204 20.6018 55.9647 20.5704L63.3876 20.1911L65.4954 25.2795L59.9782 30.2603C59.5737 30.6259 59.3428 31.1451 59.3428 31.6901V38.171C59.3428 38.7159 59.5737 39.2356 59.9782 39.6008L65.4954 44.5816L63.3876 49.6699Z" fill="#6750A4" fill-opacity="0.08"/>
<path d="M35.0003 16.72C24.9591 16.72 16.7899 24.8894 16.7899 34.9303C16.7899 44.9714 24.9591 53.1406 35.0003 53.1406C45.0414 53.1406 53.2106 44.9712 53.2106 34.9303C53.2104 24.8892 45.0412 16.72 35.0003 16.72ZM35.0003 49.2879C27.0833 49.2879 20.6426 42.8472 20.6426 34.9303C20.6426 27.0134 27.0833 20.5727 35.0003 20.5727C42.9172 20.5727 49.3579 27.0134 49.3579 34.9303C49.3579 42.8472 42.9168 49.2879 35.0003 49.2879Z" fill="#2E2E2E"/>
<path d="M35.0003 16.72C24.9591 16.72 16.7899 24.8894 16.7899 34.9303C16.7899 44.9714 24.9591 53.1406 35.0003 53.1406C45.0414 53.1406 53.2106 44.9712 53.2106 34.9303C53.2104 24.8892 45.0412 16.72 35.0003 16.72ZM35.0003 49.2879C27.0833 49.2879 20.6426 42.8472 20.6426 34.9303C20.6426 27.0134 27.0833 20.5727 35.0003 20.5727C42.9172 20.5727 49.3579 27.0134 49.3579 34.9303C49.3579 42.8472 42.9168 49.2879 35.0003 49.2879Z" fill="#6750A4" fill-opacity="0.08"/>
<g clip-path="url(#clip1_622_8930)">
<path d="M60.4213 30.4107L46.4646 16.4541C45.6634 15.6503 44.2624 15.6503 43.4612 16.4541L37.0601 22.8526C36.2398 23.679 36.2398 25.0244 37.0635 25.856L38.798 27.5704C37.6747 27.481 36.0974 28.0626 35.9508 28.0531L31.975 26.8213L32.9368 25.8595C33.3387 25.4576 33.5609 24.9237 33.5609 24.3569C33.5609 23.7874 33.3386 23.2536 32.9376 22.8543L26.54 16.4532C25.7353 15.652 24.3412 15.652 23.5365 16.4559L9.5824 30.4082C9.18058 30.8101 8.95831 31.3448 8.95831 31.9142C8.95831 32.481 9.18058 33.0158 9.58159 33.4151L15.9775 39.8135C16.3777 40.2155 16.9124 40.4368 17.4793 40.4368C18.0462 40.4368 18.5791 40.2155 18.9819 39.8135L19.4211 39.3743C20.5539 41.7467 24.3595 46.5705 27.0132 49.2259L30.5028 52.7155C31.5723 53.7832 32.5853 54.0098 33.2485 54.0098C34.0931 54.0098 34.8865 53.6617 35.5428 53.0054C36.1852 52.3622 36.3666 51.7363 36.4074 51.284C37.1766 51.4646 38.331 51.3804 39.0315 50.679C39.6739 50.0383 39.8553 49.4098 39.8961 48.9576C40.6652 49.1381 41.8197 49.0566 42.5202 48.3552C43.1626 47.7119 43.344 47.086 43.384 46.6337C44.1583 46.8038 45.3093 46.7275 46.0081 46.0287C46.6019 45.4341 47.2485 44.3716 46.779 42.8916C47.7772 41.9602 49.4622 40.8742 51.1262 39.8846C51.5151 40.2293 51.9977 40.4359 52.5212 40.4359C53.0906 40.4359 53.6245 40.2145 54.023 39.8126L60.4206 33.4167C61.2485 32.5852 61.2485 31.2398 60.4213 30.4107ZM17.4801 37.6339L11.7622 31.9142L25.0382 18.6338L30.7561 24.3535L17.4801 37.6339ZM44.2606 44.1409C44.1678 44.1409 43.9898 44.0974 43.8319 44.0593C43.5645 43.9959 43.2624 43.9221 42.9256 43.9221C42.2468 43.9221 41.8041 44.2225 41.5515 44.4742C40.9612 45.0645 40.8978 45.6973 40.8596 46.0767C40.8327 46.344 40.8301 46.3588 40.7746 46.4682C40.6817 46.4682 40.5038 46.4248 40.3458 46.3867C40.0785 46.3207 39.7764 46.2495 39.4378 46.2495C38.7564 46.2495 38.3128 46.5499 38.062 46.8016C37.4717 47.3919 37.4083 48.0246 37.3701 48.4014C37.3432 48.6688 37.3406 48.6835 37.2834 48.793C37.1905 48.793 37.0117 48.7495 36.8537 48.7114C36.5881 48.648 36.2869 48.5768 35.9483 48.5768C35.2669 48.5768 34.8233 48.8772 34.575 49.1263C33.9822 49.7167 33.9188 50.3494 33.8805 50.7288C33.8536 50.9962 33.851 51.0109 33.7 51.1637C33.4595 51.405 33.2998 51.405 33.2477 51.405C33.0099 51.405 32.6809 51.2114 32.3432 50.8738L28.8535 47.3842C25.8769 44.4058 22.4942 39.6584 21.1886 37.6055L29.9074 28.8867L31.8311 29.4292C30.2226 30.6575 28.9456 32.4171 27.9144 33.6948C27.5724 34.1193 27.3015 34.4604 27.1106 34.6515C26.2964 35.4657 26.0472 36.3172 26.3701 37.1871C26.608 37.8329 27.1271 38.352 27.7842 39.0083C28.3692 39.5933 29.1062 39.9033 29.917 39.9033C31.5767 39.9033 33.1661 38.6446 34.7035 37.4258C35.0403 37.1593 36.0525 36.4744 36.6879 36.0483C39.1852 38.3217 41.5941 40.5491 43.2929 42.2471C44.6999 43.6504 44.3257 44.0246 44.2606 44.1409ZM45.3674 40.6721C45.2832 40.58 45.2276 40.4976 45.1357 40.4056C42.9083 38.1781 40.002 35.7935 38.2147 34.0809C37.6661 33.5549 36.6765 33.7128 35.9065 33.9498C35.0071 34.1025 34.1652 34.5296 33.0879 35.383C32.0679 36.192 30.6721 37.298 29.9177 37.298C29.8162 37.298 29.2259 36.8786 29.1139 36.7668C28.8977 36.5506 29.5323 35.8388 29.942 35.3301C31.3709 33.5601 33.271 31.5661 35.7597 30.6096C37.876 29.7954 39.3466 30.146 41.2936 30.1755L49.2059 37.9984C47.7797 38.8639 46.4082 39.7823 45.3674 40.6721ZM52.5219 37.6279L39.2432 24.3526L44.9629 18.6355L58.2407 31.9108L52.5219 37.6279Z" fill="#FFC033"/>
</g>
</g>
<defs>
<clipPath id="clip0_622_8930">
<rect width="69.4444" height="69.4444" fill="white" transform="translate(0.277771 0.208344)"/>
</clipPath>
<clipPath id="clip1_622_8930">
<rect width="52.0833" height="52.0833" fill="white" transform="translate(8.95831 8.88889)"/>
</clipPath>
</defs>
</svg>
