<svg width="90" height="90" viewBox="0 0 90 90" fill="none" xmlns="http://www.w3.org/2000/svg">
<path d="M87.3668 53.8157C87.3668 51.912 86.7844 50.1419 85.7885 48.6736C88.3199 47.0366 90 44.1912 90 40.9587C90 35.8948 85.8802 31.775 80.8163 31.775H63.3976C66.4462 25.5723 68.0404 18.3004 68.0404 10.4709C68.0404 5.40627 63.92 1.28613 58.8554 1.28613C53.791 1.28613 49.6707 5.40645 49.6707 10.4709C49.6707 22.417 40.5188 31.7747 28.8353 31.7747H0V88.7138H72.917C77.981 88.7138 82.1007 84.594 82.1007 79.5301C82.1007 77.6264 81.5182 75.8562 80.5224 74.3879C83.0538 72.7509 84.7338 69.9053 84.7338 66.6729C84.7338 64.7692 84.1512 62.9989 83.1554 61.5308C85.6869 59.8935 87.3668 57.0482 87.3668 53.8157ZM15.0599 83.2036H5.51021V37.2849H15.0599V83.2036ZM26.0803 83.2036H20.5701V37.2849H26.0803V83.2036ZM80.8163 44.6322H71.0803V50.1424H78.1831C80.2086 50.1424 81.8566 51.7904 81.8566 53.8159C81.8566 55.8414 80.2086 57.4894 78.1831 57.4894H71.0803V62.9996H75.5503C77.5758 62.9996 79.2237 64.6476 79.2237 66.6731C79.2237 68.6986 77.5758 70.3466 75.5503 70.3466H71.0803V75.8568H72.917C74.9426 75.8568 76.5905 77.5047 76.5905 79.5302C76.5905 81.5558 74.9426 83.2037 72.917 83.2037H31.5905V37.1438C37.6824 36.5192 43.2847 33.8269 47.588 29.4046C52.4844 24.3727 55.1811 17.6487 55.1811 10.4711C55.1811 8.445 56.8296 6.79652 58.8556 6.79652C60.8818 6.79652 62.5303 8.445 62.5303 10.4711C62.5303 19.0172 60.4338 26.7533 56.4671 32.8429L56.0204 33.5285V37.2854H80.8163C82.8418 37.2854 84.4898 38.9334 84.4898 40.9589C84.4898 42.9843 82.8418 44.6322 80.8163 44.6322Z" fill="#FFC033"/>
</svg>
