<svg width="149" height="36" viewBox="0 0 149 36" fill="none" xmlns="http://www.w3.org/2000/svg">
<path d="M25.694 0.699998C26.1187 0.699998 26.4453 0.830665 26.674 1.092C26.9353 1.35333 27.066 1.68 27.066 2.072V33.432C27.066 33.922 26.9027 34.314 26.576 34.608C26.282 34.8693 25.939 35 25.547 35C25.351 35 25.1387 34.9673 24.91 34.902C24.6813 34.804 24.5017 34.6733 24.371 34.51L2.517 5.061L3.35 4.62V33.677C3.35 34.0363 3.21933 34.3467 2.958 34.608C2.69667 34.8693 2.37 35 1.978 35C1.55333 35 1.21033 34.8693 0.949 34.608C0.720334 34.3467 0.606 34.0363 0.606 33.677V2.17C0.606 1.68 0.753 1.32066 1.047 1.092C1.341 0.830665 1.66767 0.699998 2.027 0.699998C2.223 0.699998 2.43533 0.748998 2.664 0.846999C2.89267 0.912331 3.07233 1.043 3.203 1.239L24.812 30.345L24.322 31.227V2.072C24.322 1.68 24.4527 1.35333 24.714 1.092C25.008 0.830665 25.3347 0.699998 25.694 0.699998ZM37.7254 0.699998H55.7084C56.1004 0.699998 56.4434 0.846998 56.7374 1.141C57.0314 1.40233 57.1784 1.74533 57.1784 2.17C57.1784 2.59467 57.0314 2.93767 56.7374 3.199C56.4434 3.46033 56.1004 3.591 55.7084 3.591H38.8524L39.3424 2.758V16.527L38.8034 15.89H53.5034C53.8954 15.89 54.2384 16.037 54.5324 16.331C54.8264 16.625 54.9734 16.968 54.9734 17.36C54.9734 17.7847 54.8264 18.1277 54.5324 18.389C54.2384 18.6503 53.8954 18.781 53.5034 18.781H38.9014L39.3424 18.291V32.403L39.0974 32.109H55.7084C56.1004 32.109 56.4434 32.256 56.7374 32.55C57.0314 32.844 57.1784 33.187 57.1784 33.579C57.1784 34.0037 57.0314 34.3467 56.7374 34.608C56.4434 34.8693 56.1004 35 55.7084 35H37.7254C37.3334 35 36.9904 34.853 36.6964 34.559C36.4024 34.265 36.2554 33.922 36.2554 33.53V2.17C36.2554 1.778 36.4024 1.435 36.6964 1.141C36.9904 0.846998 37.3334 0.699998 37.7254 0.699998ZM86.106 0.553C86.498 0.553 86.8247 0.683666 87.086 0.944997C87.38 1.17367 87.527 1.46767 87.527 1.827C87.527 2.15366 87.4127 2.464 87.184 2.758L75.914 18.095L74.297 15.694L84.93 1.19C85.2567 0.765332 85.6487 0.553 86.106 0.553ZM62.684 0.553C63.2067 0.553 63.615 0.748999 63.909 1.141L87.184 32.795C87.4127 33.089 87.527 33.383 87.527 33.677C87.527 34.1343 87.3637 34.4937 87.037 34.755C86.7104 35.0163 86.3674 35.147 86.008 35.147C85.4854 35.147 85.0934 34.951 84.832 34.559L61.508 2.905C61.2794 2.64366 61.165 2.34966 61.165 2.023C61.165 1.59833 61.312 1.25533 61.606 0.994C61.9327 0.7 62.292 0.553 62.684 0.553ZM62.537 35.147C62.1124 35.147 61.7857 35.0163 61.557 34.755C61.3284 34.461 61.214 34.167 61.214 33.873C61.214 33.579 61.3284 33.2523 61.557 32.893L72.827 17.556L74.395 20.006L63.713 34.51C63.419 34.9347 63.027 35.147 62.537 35.147Z" fill="white"/>
<path d="M118.076 0.699998C118.533 0.699998 118.893 0.846998 119.154 1.141C119.415 1.40233 119.546 1.74533 119.546 2.17V22.456C119.546 24.8733 118.974 27.062 117.831 29.022C116.688 30.982 115.152 32.55 113.225 33.726C111.298 34.8693 109.125 35.441 106.708 35.441C104.291 35.441 102.102 34.8693 100.142 33.726C98.2145 32.55 96.6792 30.982 95.5358 29.022C94.3925 27.062 93.8208 24.8733 93.8208 22.456V2.17C93.8208 1.74533 93.9515 1.40233 94.2128 1.141C94.5068 0.846998 94.8988 0.699998 95.3888 0.699998C95.7808 0.699998 96.1238 0.846998 96.4178 1.141C96.7118 1.40233 96.8588 1.74533 96.8588 2.17V22.456C96.8588 24.3507 97.2998 26.0493 98.1818 27.552C99.0965 29.0547 100.305 30.2633 101.808 31.178C103.311 32.06 104.944 32.501 106.708 32.501C108.537 32.501 110.203 32.06 111.706 31.178C113.209 30.2633 114.401 29.0547 115.283 27.552C116.198 26.0493 116.655 24.3507 116.655 22.456V2.17C116.655 1.74533 116.786 1.40233 117.047 1.141C117.308 0.846998 117.651 0.699998 118.076 0.699998ZM137.731 35.49C135.248 35.5227 133.092 35.1307 131.263 34.314C129.434 33.4973 127.686 32.2723 126.02 30.639C125.857 30.5083 125.71 30.345 125.579 30.149C125.481 29.953 125.432 29.7243 125.432 29.463C125.432 29.071 125.579 28.7117 125.873 28.385C126.2 28.0583 126.559 27.895 126.951 27.895C127.343 27.895 127.702 28.0583 128.029 28.385C129.303 29.757 130.74 30.8023 132.341 31.521C133.974 32.2397 135.722 32.599 137.584 32.599C139.152 32.599 140.54 32.354 141.749 31.864C142.99 31.374 143.97 30.6717 144.689 29.757C145.408 28.8423 145.767 27.7807 145.767 26.572C145.767 25.0693 145.359 23.8607 144.542 22.946C143.725 21.9987 142.647 21.231 141.308 20.643C139.969 20.0223 138.482 19.467 136.849 18.977C135.51 18.585 134.236 18.144 133.027 17.654C131.818 17.1313 130.74 16.5107 129.793 15.792C128.846 15.0407 128.111 14.126 127.588 13.048C127.065 11.97 126.804 10.6633 126.804 9.128C126.804 7.39667 127.261 5.86133 128.176 4.522C129.091 3.18266 130.381 2.13733 132.047 1.386C133.746 0.601998 135.706 0.209998 137.927 0.209998C139.854 0.209998 141.7 0.536664 143.464 1.19C145.261 1.84333 146.682 2.807 147.727 4.081C148.217 4.60367 148.462 5.07733 148.462 5.502C148.462 5.82867 148.299 6.15533 147.972 6.482C147.645 6.80867 147.286 6.972 146.894 6.972C146.567 6.972 146.29 6.85766 146.061 6.629C145.506 5.943 144.803 5.33866 143.954 4.816C143.105 4.26067 142.157 3.836 141.112 3.542C140.099 3.248 139.038 3.101 137.927 3.101C136.392 3.101 135.003 3.346 133.762 3.836C132.553 4.29333 131.59 4.963 130.871 5.845C130.185 6.727 129.842 7.78867 129.842 9.03C129.842 10.402 130.234 11.529 131.018 12.411C131.802 13.293 132.831 14.028 134.105 14.616C135.379 15.1713 136.735 15.694 138.172 16.184C139.577 16.576 140.916 17.0333 142.19 17.556C143.497 18.046 144.64 18.6667 145.62 19.418C146.633 20.1693 147.417 21.1167 147.972 22.26C148.56 23.4033 148.854 24.8407 148.854 26.572C148.854 28.238 148.38 29.7407 147.433 31.08C146.486 32.4193 145.179 33.481 143.513 34.265C141.88 35.049 139.952 35.4573 137.731 35.49Z" fill="#FFC033"/>
</svg>
